<?xml version="1.0" standalone="no"?>
<!DOCTYPE svg PUBLIC "-//W3C//DTD SVG 1.1//EN" "http://www.w3.org/Graphics/SVG/1.1/DTD/svg11.dtd" >
<svg xmlns="http://www.w3.org/2000/svg">
<metadata>
This is a custom SVG webfont generated by Font Squirrel.
Copyright   : nullnamesubstitute
Designer    : Stanford M Rosenthal
</metadata>
<defs>
<font id="ChopdRegular" horiz-adv-x="1003" >
<font-face units-per-em="2048" ascent="1638" descent="-410" />
<missing-glyph horiz-adv-x="552" />
<glyph unicode=" "  horiz-adv-x="552" />
<glyph unicode="&#x09;" horiz-adv-x="552" />
<glyph unicode="&#xa0;" horiz-adv-x="552" />
<glyph unicode="!" horiz-adv-x="436" d="M72 287v860l286 287v-1147h-286zM74 0v215h284v-215h-284z" />
<glyph unicode="&#x22;" horiz-adv-x="1372" />
<glyph unicode="#" d="M72 362v216h71v215h-71v215h71v215h215v-215h215v286h215v-286h144v-215h-144v-215h144v-216h-144v-143h-215v143h-215v-215h-215v215h-71zM358 578h215v215h-215v-215z" />
<glyph unicode="$" horiz-adv-x="874" d="M72 109v241h243q31 0 45 2v244h-45q-186 0 -233 174q-10 39 -10 70v243l243 244h45v107h142v-107h301v-244h-268q-23 0 -33 -2v-241h57q203 0 240 -103l4 -20v-365q0 -186 -174 -233q-39 -10 -70 -10h-57v-109h-144v109h-286zM315 840h45v164q-45 -63 -45 -140v-24z M502 430q57 72 57 164h-57v-164z" />
<glyph unicode="%" d="M72 662l215 215h645l-215 -215h-645zM358 303v215h215v-215h-215zM430 1020v215h215v-215h-215z" />
<glyph unicode="&#x26;" d="M72 285v368l141 138l-141 141v215l286 293h285q211 0 272 -203q16 -53 17 -90h-574v-72l359 -356h215v-215h-199l199 -160v-20v-37q0 -211 -197 -271q-49 -16 -90 -16h-289q-217 0 -272 195q-12 49 -12 90zM358 287q223 0 277 215h-133l-144 143v-358z" />
<glyph unicode="'" horiz-adv-x="1372" />
<glyph unicode="(" horiz-adv-x="716" d="M72 285q2 578 2 864q0 213 196 272q49 14 90 15q215 0 271 -195q14 -51 14 -92h-287v-860h287q0 -213 -196 -273q-51 -16 -93 -16q-217 0 -272 195q-12 49 -12 90z" />
<glyph unicode=")" horiz-adv-x="716" d="M72 289q0 -213 196 -273q51 -16 92 -16q217 0 273 195q12 49 12 90q-2 578 -2 864q0 213 -197 272q-49 14 -90 15q-215 0 -270 -195q-14 -51 -14 -92h286v-860h-286z" />
<glyph unicode="*" horiz-adv-x="544" d="M72 1278h151v49l101 100v-149h49l100 -100h-149v-52l-101 -100v152h-51z" />
<glyph unicode="+" d="M72 559v287h286v287h287v-287h287v-287h-287v-287h-287v287h-286z" />
<glyph unicode="," horiz-adv-x="348" d="M72 -6v209h204v-336l-118 -125h-86v121q66 0 95.5 32.5t25.5 65.5l-3 33h-118z" />
<glyph unicode="-" horiz-adv-x="1372" />
<glyph unicode="." horiz-adv-x="348" d="M72 10v205h204v-205h-204z" />
<glyph unicode="/" horiz-adv-x="1372" />
<glyph unicode="0" d="M72 289v858q0 215 194 270q49 14 90 15h289q213 0 273 -197q14 -49 14 -88v-864q0 -213 -197 -271q-49 -14 -90 -14h-287q-213 0 -272 199q-14 51 -14 92zM356 285q12 0 32 2t69 17t87 42t68.5 86.5t30.5 138.5v138l-285 -285zM358 711l285 284v150q-12 0 -30.5 -2 t-67.5 -17.5t-87 -42t-69 -86t-31 -139.5v-147z" />
<glyph unicode="1" horiz-adv-x="716" d="M72 1147l288 287h285v-1434h-287v1147h-286z" />
<glyph unicode="2" horiz-adv-x="1001" d="M72 0v545l479 479v125h-479v285h571q12 0 31.5 -2t69 -17.5t87 -43.5t68.5 -86t31 -138v-203l-572 -569v-90h572v-285h-858z" />
<glyph unicode="3" d="M72 0h860v1434h-574l-286 -289h286q80 0 139.5 -30t86 -72t43 -83.5t18.5 -70.5l2 -31h-375v-285h90q80 0 139.5 -29.5t86 -70.5t41 -83t14.5 -71l2 -30h-573v-289z" />
<glyph unicode="4" d="M72 860l286 -289h289v-571h285v1434h-287v-574q-213 0 -270 197q-14 49 -15 90v287l-288 -287v-287z" />
<glyph unicode="5" d="M72 287h573v286h-287q-213 0 -272 197q-14 49 -14 90v285l286 289h574v-287h-574v-287h287q236 0 281 -117l6 -26v-430q0 -213 -197 -273q-49 -14 -90 -14h-287z" />
<glyph unicode="6" d="M72 287v860l286 287h574v-287h-287q-213 0 -272 -197q-14 -49 -15 -90h287q213 0 273 -196q14 -49 14 -91v-286q0 -213 -197 -273q-49 -14 -90 -14h-287zM358 573q0 -12 2 -31.5t17.5 -68.5t42 -87t86 -68.5t139.5 -30.5v286h-287z" />
<glyph unicode="7" d="M72 1145h573v-227l-287 -287v-631h287v483l287 316v635h-574z" />
<glyph unicode="8" d="M72 291v858q0 215 194 270q49 14 90 15h289q213 0 273 -197q14 -49 14 -88v-864q0 -213 -197 -271q-49 -14 -90 -14h-287q-213 0 -272 199q-14 51 -14 92zM356 287q12 0 32 2t69 17.5t87 42t68.5 86t30.5 138.5h-285zM358 862h285v285q-12 0 -30.5 -2t-67.5 -17.5 t-86 -42t-69 -85t-32 -138.5z" />
<glyph unicode="9" d="M72 287h284q12 0 32 2t69 17.5t87 42t68.5 86t30.5 138.5v2h-571v574q0 215 194 270q49 14 90 15h289q213 0 273 -197q14 -49 14 -88v-864q0 -213 -197 -271q-49 -14 -90 -14h-287q-78 0 -136 29.5t-85.5 66.5t-44 84t-18.5 70t-2 37zM358 862h285v285q-12 0 -30.5 -2 t-67.5 -17.5t-86 -42t-69 -85t-32 -138.5z" />
<glyph unicode=":" horiz-adv-x="430" d="M72 0v287h286v-287h-286zM72 860v287h286v-287h-286z" />
<glyph unicode=";" horiz-adv-x="430" d="M72 20v293h286v-469l-168 -176h-118v170q90 0 131 46t37 91l-4 45h-164zM72 887v287h286v-287h-286z" />
<glyph unicode="=" horiz-adv-x="860" d="M72 195v286h716v-286h-716zM72 625v286h716v-286h-716z" />
<glyph unicode="?" d="M72 1149l286 285h285q80 0 138.5 -30t86 -73t44 -86t18.5 -74l2 -28v-352l-287 -287v-215h-287v286l287 287q0 213 -196 273q-49 14 -91 14h-286zM358 2v215h287v-215h-287z" />
<glyph unicode="A" d="M72 6l286 287v139h287v-432h287v1153q0 12 -1 30.5t-15.5 66.5t-41 85t-85 68t-138.5 31h-286q-12 0 -32 -2t-70 -16.5t-89 -41t-70.5 -85t-31.5 -136.5v-1147zM358 633v219q0 213 197 272q49 14 90 15v-506h-287z" />
<glyph unicode="B" horiz-adv-x="1005" d="M72 -2v1149l288 287h287q12 0 31.5 -2t69 -17.5t87 -42t68.5 -86t31 -139.5v-143q0 -2 0.5 -10t0.5 -12q0 -11 -3 -35q-4 -30 -11.5 -57.5t-28 -60t-50 -56t-80.5 -40t-115 -16.5q213 0 271 -195q14 -49 14 -90v-143q0 -211 -199 -275q-49 -14 -88 -16h-573zM358 227 q211 0 271 197q16 49 16 90h-287v-287zM360 887h285v289q-78 0 -136 -30t-86 -72t-43 -85t-18 -71z" />
<glyph unicode="C" horiz-adv-x="1001" d="M72 285q0 -12 2 -30.5t16 -68t42 -87.5t87.5 -68.5t138.5 -30.5h291l281 289v282h-285q0 -12 -1 -30.5t-16.5 -67.5t-42 -87t-85 -68.5t-138.5 -30.5q-4 289 -4 575q0 213 197 273q49 14 88 14v-174h287v459h-572q-12 0 -31.5 -2t-68.5 -17.5t-87 -42t-68.5 -86 t-30.5 -139.5v-862z" />
<glyph unicode="D" horiz-adv-x="997" d="M72 6v1428h575q57 0 104.5 -15.5t76 -41t49 -55.5t29.5 -59.5t14.5 -55t5.5 -40.5v-16v-829l-277 -316h-577zM332 291q12 0 30.5 2t67.5 17.5t86 42t67.5 85t30.5 137.5v287q0 80 -28.5 138.5t-70.5 85t-84 42t-71 17.5l-28 2v-856z" />
<glyph unicode="E" d="M72 0v1145l286 289h574v-289h-287q-213 0 -272 -199q-16 -49 -17 -86h375v-287h-90q-80 0 -139.5 -29.5t-86 -70.5t-41 -83t-14.5 -71l-2 -30h574v-289h-860z" />
<glyph unicode="F" d="M72 0v1149l286 285h574v-287h-287q-213 0 -272 -197q-14 -49 -15 -88h373v-289h-373v-573h-286z" />
<glyph unicode="G" horiz-adv-x="1083" d="M72 287v860q0 80 29.5 139.5t70.5 86t83 40.5t73 17h28h373q80 0 138.5 -29t85 -70t42 -82t17.5 -69v-29v-152h-283v146h-80q-213 0 -272 -197q-14 -49 -15 -88v-571h80q213 0 273 196q14 49 14 88h-287l287 287h283v-575q0 -207 -193 -267q-49 -14 -88 -14h-371 q-80 0 -139 28.5t-85.5 70.5t-43 84t-18.5 71z" />
<glyph unicode="H" d="M72 289v1145h286v-691q215 0 275 197q14 51 14 92v402l285 -281v-1153h-287v573h-287v-571z" />
<glyph unicode="I" d="M72 6v283h286v858h-286l288 287h572v-287h-287v-858h287v-283h-860z" />
<glyph unicode="J" d="M72 287h286q213 0 273 196q14 49 14 90v861h287v-1147q0 -80 -30 -139.5t-73 -86t-85 -42t-72 -17.5l-29 -2h-285z" />
<glyph unicode="K" d="M72 0v1434h284v-574q213 0 273 197q14 49 14 90v287h289v-424q0 -82 -24.5 -141.5t-65.5 -88t-77 -41t-75 -16.5q68 -6 117 -36t71.5 -67.5t36 -74.5t15.5 -62l2 -26v-457h-289v287q0 213 -197 272q-49 14 -90 14v-286z" />
<glyph unicode="L" d="M72 0v1147l143 143l141 144v-863q0 -82 30 -141t72 -87t85 -43t71 -17l31 -2h287v-281h-860z" />
<glyph unicode="M" horiz-adv-x="1576" d="M72 0v1145l288 289h859q213 0 272 -197q14 -49 14 -90v-1147h-286v1147q-213 0 -273 -197q-14 -49 -14 -90v-860h-285v1145q-209 0 -266 -195q-14 -49 -14 -90v-860h-295z" />
<glyph unicode="N" d="M72 0v1147l286 287h574v-1434h-289v1149q-80 0 -139.5 -29.5t-86 -72.5t-42 -85t-17.5 -73l-2 -29v-860h-284z" />
<glyph unicode="O" d="M72 289q0 -12 2 -31.5t17 -69t42 -88.5t86.5 -69.5t138.5 -30.5h287q12 0 31.5 2t69 16.5t87 42t68.5 87t31 139.5v862q0 12 -2 30.5t-17.5 67.5t-42 87t-86 69t-139.5 31h-289q-12 0 -30.5 -1t-67.5 -15.5t-87 -41t-68.5 -86t-30.5 -141.5v-860zM358 287v573 q0 213 197 273q49 14 88 14v-574q0 -213 -197 -272q-49 -14 -88 -14z" />
<glyph unicode="P" d="M72 -2v1149l286 287h287q215 0 273 -197q14 -49 14 -90v-258q0 -80 -30 -139.5t-72 -87t-83.5 -43t-70.5 -17.5l-31 -2h-289v-602h-284zM344 840h287v348q-12 0 -31.5 -2t-69 -16.5t-87 -42t-68.5 -87t-31 -139.5v-61z" />
<glyph unicode="Q" horiz-adv-x="1247" d="M72 291q0 -12 2 -31.5t17 -70t42 -88.5t86.5 -69.5t138.5 -31.5h287q12 0 30.5 1t68 16.5t87 42t68.5 86t31 139.5v864q0 12 -1 30.5t-16.5 67.5t-42 87t-86 69t-139.5 31h-289q-12 0 -30.5 -1t-67.5 -16.5t-87 -42t-68.5 -86t-30.5 -139.5v-858zM356 287q2 287 2 573 q0 213 197 273q49 14 88 14v-574q0 -213 -197 -272q-49 -14 -90 -14zM358 -57l201 -215h545q0 168 -160 206l-55 9h-531z" />
<glyph unicode="R" horiz-adv-x="1005" d="M72 0v1147l288 287h287q6 0 16.5 -1t40 -6.5t57 -14.5t60.5 -30.5t56.5 -50t40 -76t16.5 -106.5v-143q0 -8 -1 -21.5t-10.5 -50.5t-24.5 -68.5t-47 -66.5t-75 -56q158 -68 158 -256v-487h-283v287q0 12 -2 31.5t-17.5 68.5t-43 88t-87 69.5t-141.5 30.5v-575h-288z M360 889h285v289q-80 0 -139.5 -30t-86 -72t-42 -85t-17.5 -73v-29z" />
<glyph unicode="S" d="M72 0v287h286q213 0 273 196q14 49 14 90h-287q-213 0 -272 197q-14 49 -14 90v285l286 289h574v-287h-316q-72 0 -125 -26.5t-77.5 -64.5t-38 -76t-15.5 -65l-2 -26v-29h287q236 0 281 -117l6 -26v-430q0 -213 -197 -273q-49 -14 -90 -14h-573z" />
<glyph unicode="T" d="M72 1147v287h860v-287h-287v-860l-287 -287v1147h-286z" />
<glyph unicode="U" d="M72 287v1147h286v-1147q213 0 273 196q14 49 14 90v861h287v-1147q0 -221 -195 -275q-45 -13 -81 -12h-11h-289q-213 0 -270 197q-14 49 -14 90z" />
<glyph unicode="V" d="M72 287v1147l286 -287v-860q213 0 273 196q14 49 14 90v574l287 287v-1147q0 -29 -287 -287h-289z" />
<glyph unicode="W" horiz-adv-x="1576" d="M72 287v1147l286 -287v-860q213 0 273 196q14 49 14 90v431h287v-717q213 0 272 196q14 49 15 90v861l286 -287v-860q0 -213 -196 -273q-49 -14 -90 -14h-861z" />
<glyph unicode="X" d="M72 0v287q213 0 272 196q14 49 14 90v287h-286v287h458l230 287h172v-287q-213 0 -273 -197q-14 -49 -14 -90v-287h287v-286h-459l-229 -287h-172z" />
<glyph unicode="Y" horiz-adv-x="1001" d="M72 860v574h286v-574q213 0 271 197q14 49 14 90v287h287v-574l-285 -287v-573h-287v573z" />
<glyph unicode="Z" d="M72 0h860v285h-576v90l285 287l291 286v486h-860v-287h485v-115l-485 -487v-545z" />
<glyph unicode="\" horiz-adv-x="1372" />
<glyph unicode="_" horiz-adv-x="1372" />
<glyph unicode="a" d="M72 6l286 287v139h287v-432h287v1153q0 12 -1 30.5t-15.5 66.5t-41 85t-85 68t-138.5 31h-286q-12 0 -32 -2t-70 -16.5t-89 -41t-70.5 -85t-31.5 -136.5v-1147zM358 633v219q0 213 197 272q49 14 90 15v-506h-287z" />
<glyph unicode="b" horiz-adv-x="1005" d="M72 -2v1149l288 287h287q12 0 31.5 -2t69 -17.5t87 -42t68.5 -86t31 -139.5v-143q0 -2 0.5 -10t0.5 -12q0 -11 -3 -35q-4 -30 -11.5 -57.5t-28 -60t-50 -56t-80.5 -40t-115 -16.5q213 0 271 -195q14 -49 14 -90v-143q0 -211 -199 -275q-49 -14 -88 -16h-573zM358 227 q211 0 271 197q16 49 16 90h-287v-287zM360 887h285v289q-78 0 -136 -30t-86 -72t-43 -85t-18 -71z" />
<glyph unicode="c" horiz-adv-x="1001" d="M72 285q0 -12 2 -30.5t16 -68t42 -87.5t87.5 -68.5t138.5 -30.5h291l281 289v282h-285q0 -12 -1 -30.5t-16.5 -67.5t-42 -87t-85 -68.5t-138.5 -30.5q-4 289 -4 575q0 213 197 273q49 14 88 14v-174h287v459h-572q-12 0 -31.5 -2t-68.5 -17.5t-87 -42t-68.5 -86 t-30.5 -139.5v-862z" />
<glyph unicode="d" horiz-adv-x="997" d="M72 6v1428h575q57 0 104.5 -15.5t76 -41t49 -55.5t29.5 -59.5t14.5 -55t5.5 -40.5v-16v-829l-277 -316h-577zM332 291q12 0 30.5 2t67.5 17.5t86 42t67.5 85t30.5 137.5v287q0 80 -28.5 138.5t-70.5 85t-84 42t-71 17.5l-28 2v-856z" />
<glyph unicode="e" d="M72 0v1145l286 289h574v-289h-287q-213 0 -272 -199q-16 -49 -17 -86h375v-287h-90q-80 0 -139.5 -29.5t-86 -70.5t-41 -83t-14.5 -71l-2 -30h574v-289h-860z" />
<glyph unicode="f" d="M72 0v1149l286 285h574v-287h-287q-213 0 -272 -197q-14 -49 -15 -88h373v-289h-373v-573h-286z" />
<glyph unicode="g" horiz-adv-x="1083" d="M72 287v860q0 80 29.5 139.5t70.5 86t83 40.5t73 17h28h373q80 0 138.5 -29t85 -70t42 -82t17.5 -69v-29v-152h-283v146h-80q-213 0 -272 -197q-14 -49 -15 -88v-571h80q213 0 273 196q14 49 14 88h-287l287 287h283v-575q0 -207 -193 -267q-49 -14 -88 -14h-371 q-80 0 -139 28.5t-85.5 70.5t-43 84t-18.5 71z" />
<glyph unicode="h" d="M72 289v1145h286v-691q215 0 275 197q14 51 14 92v402l285 -281v-1153h-287v573h-287v-571z" />
<glyph unicode="i" d="M72 6v283h286v858h-286l288 287h572v-287h-287v-858h287v-283h-860z" />
<glyph unicode="j" d="M72 287h286q213 0 273 196q14 49 14 90v861h287v-1147q0 -80 -30 -139.5t-73 -86t-85 -42t-72 -17.5l-29 -2h-285z" />
<glyph unicode="k" d="M72 0v1434h284v-574q213 0 273 197q14 49 14 90v287h289v-424q0 -82 -24.5 -141.5t-65.5 -88t-77 -41t-75 -16.5q68 -6 117 -36t71.5 -67.5t36 -74.5t15.5 -62l2 -26v-457h-289v287q0 213 -197 272q-49 14 -90 14v-286z" />
<glyph unicode="l" d="M72 0v1147l143 143l141 144v-863q0 -82 30 -141t72 -87t85 -43t71 -17l31 -2h287v-281h-860z" />
<glyph unicode="m" horiz-adv-x="1576" d="M72 0v1145l288 289h859q213 0 272 -197q14 -49 14 -90v-1147h-286v1147q-213 0 -273 -197q-14 -49 -14 -90v-860h-285v1145q-209 0 -266 -195q-14 -49 -14 -90v-860h-295z" />
<glyph unicode="n" d="M72 0v1147l286 287h574v-1434h-289v1149q-80 0 -139.5 -29.5t-86 -72.5t-42 -85t-17.5 -73l-2 -29v-860h-284z" />
<glyph unicode="o" d="M72 289q0 -12 2 -31.5t17 -69t42 -88.5t86.5 -69.5t138.5 -30.5h287q12 0 31.5 2t69 16.5t87 42t68.5 87t31 139.5v862q0 12 -2 30.5t-17.5 67.5t-42 87t-86 69t-139.5 31h-289q-12 0 -30.5 -1t-67.5 -15.5t-87 -41t-68.5 -86t-30.5 -141.5v-860zM358 287v573 q0 213 197 273q49 14 88 14v-574q0 -213 -197 -272q-49 -14 -88 -14z" />
<glyph unicode="p" d="M72 -2v1149l286 287h287q215 0 273 -197q14 -49 14 -90v-258q0 -80 -30 -139.5t-72 -87t-83.5 -43t-70.5 -17.5l-31 -2h-289v-602h-284zM344 840h287v348q-12 0 -31.5 -2t-69 -16.5t-87 -42t-68.5 -87t-31 -139.5v-61z" />
<glyph unicode="q" horiz-adv-x="1247" d="M72 291q0 -12 2 -31.5t17 -70t42 -88.5t86.5 -69.5t138.5 -31.5h287q12 0 30.5 1t68 16.5t87 42t68.5 86t31 139.5v864q0 12 -1 30.5t-16.5 67.5t-42 87t-86 69t-139.5 31h-289q-12 0 -30.5 -1t-67.5 -16.5t-87 -42t-68.5 -86t-30.5 -139.5v-858zM356 287q2 287 2 573 q0 213 197 273q49 14 88 14v-574q0 -213 -197 -272q-49 -14 -90 -14zM358 -57l201 -215h545q0 168 -160 206l-55 9h-531z" />
<glyph unicode="r" horiz-adv-x="1005" d="M72 0v1147l288 287h287q6 0 16.5 -1t40 -6.5t57 -14.5t60.5 -30.5t56.5 -50t40 -76t16.5 -106.5v-143q0 -8 -1 -21.5t-10.5 -50.5t-24.5 -68.5t-47 -66.5t-75 -56q158 -68 158 -256v-487h-283v287q0 12 -2 31.5t-17.5 68.5t-43 88t-87 69.5t-141.5 30.5v-575h-288z M360 889h285v289q-80 0 -139.5 -30t-86 -72t-42 -85t-17.5 -73v-29z" />
<glyph unicode="s" d="M72 0v287h286q213 0 273 196q14 49 14 90h-287q-213 0 -272 197q-14 49 -14 90v285l286 289h574v-287h-316q-72 0 -125 -26.5t-77.5 -64.5t-38 -76t-15.5 -65l-2 -26v-29h287q236 0 281 -117l6 -26v-430q0 -213 -197 -273q-49 -14 -90 -14h-573z" />
<glyph unicode="t" d="M72 1147v287h860v-287h-287v-860l-287 -287v1147h-286z" />
<glyph unicode="u" d="M72 287v1147h286v-1147q213 0 273 196q14 49 14 90v861h287v-1147q0 -221 -195 -275q-45 -13 -81 -12h-11h-289q-213 0 -270 197q-14 49 -14 90z" />
<glyph unicode="v" d="M72 287v1147l286 -287v-860q213 0 273 196q14 49 14 90v574l287 287v-1147q0 -29 -287 -287h-289z" />
<glyph unicode="w" horiz-adv-x="1576" d="M72 287v1147l286 -287v-860q213 0 273 196q14 49 14 90v431h287v-717q213 0 272 196q14 49 15 90v861l286 -287v-860q0 -213 -196 -273q-49 -14 -90 -14h-861z" />
<glyph unicode="x" d="M72 0v287q213 0 272 196q14 49 14 90v287h-286v287h458l230 287h172v-287q-213 0 -273 -197q-14 -49 -14 -90v-287h287v-286h-459l-229 -287h-172z" />
<glyph unicode="y" horiz-adv-x="1001" d="M72 860v574h286v-574q213 0 271 197q14 49 14 90v287h287v-574l-285 -287v-573h-287v573z" />
<glyph unicode="z" d="M72 0h860v285h-576v90l285 287l291 286v486h-860v-287h485v-115l-485 -487v-545z" />
<glyph unicode="&#xa1;" horiz-adv-x="1372" />
<glyph unicode="&#xaa;" d="M72 6l286 287v139h287v-432h287v1153q0 12 -1 30.5t-15.5 66.5t-41 85t-85 68t-138.5 31h-286q-12 0 -32 -2t-70 -16.5t-89 -41t-70.5 -85t-31.5 -136.5v-1147zM358 633v219q0 213 197 272q49 14 90 15v-506h-287z" />
<glyph unicode="&#xab;" horiz-adv-x="1372" />
<glyph unicode="&#xad;" horiz-adv-x="1372" />
<glyph unicode="&#xb2;" horiz-adv-x="1001" d="M72 0v545l479 479v125h-479v285h571q12 0 31.5 -2t69 -17.5t87 -43.5t68.5 -86t31 -138v-203l-572 -569v-90h572v-285h-858z" />
<glyph unicode="&#xb3;" d="M72 0h860v1434h-574l-286 -289h286q80 0 139.5 -30t86 -72t43 -83.5t18.5 -70.5l2 -31h-375v-285h90q80 0 139.5 -29.5t86 -70.5t41 -83t14.5 -71l2 -30h-573v-289z" />
<glyph unicode="&#xb7;" horiz-adv-x="1372" />
<glyph unicode="&#xb9;" horiz-adv-x="716" d="M72 1147l288 287h285v-1434h-287v1147h-286z" />
<glyph unicode="&#xba;" d="M72 289q0 -12 2 -31.5t17 -69t42 -88.5t86.5 -69.5t138.5 -30.5h287q12 0 31.5 2t69 16.5t87 42t68.5 87t31 139.5v862q0 12 -2 30.5t-17.5 67.5t-42 87t-86 69t-139.5 31h-289q-12 0 -30.5 -1t-67.5 -15.5t-87 -41t-68.5 -86t-30.5 -141.5v-860zM358 287v573 q0 213 197 273q49 14 88 14v-574q0 -213 -197 -272q-49 -14 -88 -14z" />
<glyph unicode="&#xbb;" horiz-adv-x="1372" />
<glyph unicode="&#xbf;" d="M74 14v353l288 284v215h285v-286l-289 -287q0 -45 10.5 -85t27 -67.5t38 -49t45 -36t47 -25t45 -15.5t38 -7t26.5 -4h10h287l-289 -283h-285q-80 0 -138 31t-86 74t-42 86t-17 72.5t-1 29.5zM362 938v215h287v-215h-287z" />
<glyph unicode="&#x152;" horiz-adv-x="2007" d="M1076 0v1145l286 289h574v-289h-287q-213 0 -272 -199q-16 -49 -17 -86h375v-287h-90q-80 0 -139.5 -29.5t-86 -70.5t-41 -83t-14.5 -71l-2 -30h574v-289h-860zM72 289q0 -12 2 -31.5t17 -69t42 -88.5t86.5 -69.5t138.5 -30.5h287q12 0 31.5 2t69 16.5t87 42t68.5 87 t31 139.5v862q0 12 -2 30.5t-17.5 67.5t-42 87t-86 69t-139.5 31h-289q-12 0 -30.5 -1t-67.5 -15.5t-87 -41t-68.5 -86t-30.5 -141.5v-860zM358 287v573q0 213 197 273q49 14 88 14v-574q0 -213 -197 -272q-49 -14 -88 -14z" />
<glyph unicode="&#x153;" horiz-adv-x="2007" d="M1076 0v1145l286 289h574v-289h-287q-213 0 -272 -199q-16 -49 -17 -86h375v-287h-90q-80 0 -139.5 -29.5t-86 -70.5t-41 -83t-14.5 -71l-2 -30h574v-289h-860zM72 289q0 -12 2 -31.5t17 -69t42 -88.5t86.5 -69.5t138.5 -30.5h287q12 0 31.5 2t69 16.5t87 42t68.5 87 t31 139.5v862q0 12 -2 30.5t-17.5 67.5t-42 87t-86 69t-139.5 31h-289q-12 0 -30.5 -1t-67.5 -15.5t-87 -41t-68.5 -86t-30.5 -141.5v-860zM358 287v573q0 213 197 273q49 14 88 14v-574q0 -213 -197 -272q-49 -14 -88 -14z" />
<glyph unicode="&#x2000;" horiz-adv-x="718" />
<glyph unicode="&#x2001;" horiz-adv-x="1439" />
<glyph unicode="&#x2002;" horiz-adv-x="718" />
<glyph unicode="&#x2003;" horiz-adv-x="1439" />
<glyph unicode="&#x2004;" horiz-adv-x="479" />
<glyph unicode="&#x2005;" horiz-adv-x="358" />
<glyph unicode="&#x2006;" horiz-adv-x="239" />
<glyph unicode="&#x2007;" horiz-adv-x="239" />
<glyph unicode="&#x2008;" horiz-adv-x="178" />
<glyph unicode="&#x2009;" horiz-adv-x="286" />
<glyph unicode="&#x200a;" horiz-adv-x="79" />
<glyph unicode="&#x2010;" horiz-adv-x="1372" />
<glyph unicode="&#x2011;" horiz-adv-x="1372" />
<glyph unicode="&#x2012;" horiz-adv-x="1372" />
<glyph unicode="&#x2013;" horiz-adv-x="1372" />
<glyph unicode="&#x2014;" horiz-adv-x="1372" />
<glyph unicode="&#x2018;" horiz-adv-x="1372" />
<glyph unicode="&#x2019;" horiz-adv-x="1372" />
<glyph unicode="&#x201a;" horiz-adv-x="348" d="M72 -6v209h204v-336l-118 -125h-86v121q66 0 95.5 32.5t25.5 65.5l-3 33h-118z" />
<glyph unicode="&#x201c;" horiz-adv-x="552" />
<glyph unicode="&#x201d;" horiz-adv-x="552" />
<glyph unicode="&#x201e;" horiz-adv-x="348" d="M72 -6v209h204v-336l-118 -125h-86v121q66 0 95.5 32.5t25.5 65.5l-3 33h-118z" />
<glyph unicode="&#x2022;" horiz-adv-x="1372" />
<glyph unicode="&#x2026;" horiz-adv-x="819" d="M-184 10v205h204v-205h-204zM172 10v205h205v-205h-205zM543 10v205h205v-205h-205z" />
<glyph unicode="&#x202f;" horiz-adv-x="286" />
<glyph unicode="&#x2039;" horiz-adv-x="1372" />
<glyph unicode="&#x203a;" horiz-adv-x="1372" />
<glyph unicode="&#x205f;" horiz-adv-x="358" />
<glyph unicode="&#x2122;" horiz-adv-x="2580" d="M1076 0v1145l288 289h859q213 0 272 -197q14 -49 14 -90v-1147h-286v1147q-213 0 -273 -197q-14 -49 -14 -90v-860h-285v1145q-209 0 -266 -195q-14 -49 -14 -90v-860h-295zM72 1147v287h860v-287h-287v-860l-287 -287v1147h-286z" />
<glyph unicode="&#xe000;" horiz-adv-x="1435" d="M0 1435h1435v-1435h-1435v1435z" />
<glyph unicode="&#xfb01;" horiz-adv-x="2007" d="M1076 6v283h286v858h-286l288 287h572v-287h-287v-858h287v-283h-860zM72 0v1149l286 285h574v-287h-287q-213 0 -272 -197q-14 -49 -15 -88h373v-289h-373v-573h-286z" />
<glyph unicode="&#xfb02;" horiz-adv-x="2007" d="M1076 0v1147l143 143l141 144v-863q0 -82 30 -141t72 -87t85 -43t71 -17l31 -2h287v-281h-860zM72 0v1149l286 285h574v-287h-287q-213 0 -272 -197q-14 -49 -15 -88h373v-289h-373v-573h-286z" />
<glyph unicode="&#xfb03;" horiz-adv-x="3010" d="M2079 6v283h286v858h-286l288 287h572v-287h-287v-858h287v-283h-860zM1076 0v1149l286 285h574v-287h-287q-213 0 -272 -197q-14 -49 -15 -88h373v-289h-373v-573h-286zM72 0v1149l286 285h574v-287h-287q-213 0 -272 -197q-14 -49 -15 -88h373v-289h-373v-573h-286z " />
<glyph unicode="&#xfb04;" horiz-adv-x="3010" d="M2079 0v1147l143 143l141 144v-863q0 -82 30 -141t72 -87t85 -43t71 -17l31 -2h287v-281h-860zM1076 0v1149l286 285h574v-287h-287q-213 0 -272 -197q-14 -49 -15 -88h373v-289h-373v-573h-286zM72 0v1149l286 285h574v-287h-287q-213 0 -272 -197q-14 -49 -15 -88h373 v-289h-373v-573h-286z" />
</font>
</defs>
</svg>
